# xmcd
#
# Track frame offsets: 
#        150
#        17627
#        38925
#        53715
#        70677
#        82932
#        100770
#        116845
#        127050
#        140292
#
# Disc length: 2108 seconds
#
# Revision: 0
# Processed by: cddbd v1.5.2PL0 Copyright (c) Steve Scherf et al.
# Submitted via: ExactAudioCopyFreeDBPlugin 1.0
#
DISCID=80083a0a
DTITLE=Ralna English - Always Ralna
DYEAR=1988
DGENRE=Country
TTITLE0=Didn't You
TTITLE1=In Person
TTITLE2=It Had To Be You
TTITLE3=Lovesick Blues
TTITLE4=You'll Never Walk Alone
TTITLE5=Memory
TTITLE6=Slowly
TTITLE7=You'll Never Know
TTITLE8=Always
TTITLE9=Even The Nights Are Better
EXTD=
EXTT0=
EXTT1=
EXTT2=
EXTT3=
EXTT4=
EXTT5=
EXTT6=
EXTT7=
EXTT8=
EXTT9=
PLAYORDER=
